<svg width="24" height="25" viewBox="0 0 24 25" fill="none" xmlns="http://www.w3.org/2000/svg">
<path fill-rule="evenodd" clip-rule="evenodd" d="M14.4779 1.29575C15.2485 0.529782 16.3362 0.219727 17.5816 0.219727H19.8141C21.0594 0.219727 22.1472 0.529782 22.9177 1.29575C23.6883 2.06172 24.0002 3.14306 24.0002 4.38102V6.60038C24.0002 7.83835 23.6883 8.91969 22.9177 9.68566C22.1472 10.4516 21.0594 10.7617 19.8141 10.7617H17.5816C16.3362 10.7617 15.2485 10.4516 14.4779 9.68566C13.7074 8.91969 13.3955 7.83835 13.3955 6.60038V4.38102C13.3955 3.14306 13.7074 2.06172 14.4779 1.29575ZM15.6619 2.47274C15.3162 2.81645 15.0699 3.39963 15.0699 4.38102V6.60038C15.0699 7.58177 15.3162 8.16495 15.6619 8.50867C16.0077 8.85238 16.5943 9.09716 17.5816 9.09716H19.8141C20.8013 9.09716 21.388 8.85238 21.7337 8.50867C22.0795 8.16495 22.3257 7.58177 22.3257 6.60038V4.38102C22.3257 3.39963 22.0795 2.81645 21.7337 2.47274C21.388 2.12903 20.8013 1.88425 19.8141 1.88425H17.5816C16.5943 1.88425 16.0077 2.12903 15.6619 2.47274Z" fill="#E65F2B"/>
<path fill-rule="evenodd" clip-rule="evenodd" d="M1.08242 14.6117C1.85294 13.8457 2.94072 13.5356 4.18605 13.5356H6.4186C7.66394 13.5356 8.75171 13.8457 9.52223 14.6117C10.2928 15.3776 10.6047 16.459 10.6047 17.6969V19.9163C10.6047 21.1543 10.2928 22.2356 9.52223 23.0016C8.75171 23.7675 7.66394 24.0776 6.4186 24.0776H4.18605C2.94072 24.0776 1.85294 23.7675 1.08242 23.0016C0.3119 22.2356 0 21.1543 0 19.9163V17.6969C0 16.459 0.3119 15.3776 1.08242 14.6117ZM2.26642 15.7887C1.92066 16.1324 1.67442 16.7156 1.67442 17.6969V19.9163C1.67442 20.8977 1.92066 21.4809 2.26642 21.8246C2.61217 22.1683 3.19882 22.4131 4.18605 22.4131H6.4186C7.40583 22.4131 7.99248 22.1683 8.33824 21.8246C8.68399 21.4809 8.93023 20.8977 8.93023 19.9163V17.6969C8.93023 16.7156 8.68399 16.1324 8.33824 15.7887C7.99248 15.4449 7.40583 15.2002 6.4186 15.2002H4.18605C3.19882 15.2002 2.61217 15.4449 2.26642 15.7887Z" fill="#E65F2B"/>
<path fill-rule="evenodd" clip-rule="evenodd" d="M5.30233 1.88425C3.29869 1.88425 1.67442 3.49891 1.67442 5.4907C1.67442 7.4825 3.29869 9.09716 5.30233 9.09716C7.30596 9.09716 8.93023 7.4825 8.93023 5.4907C8.93023 3.49891 7.30596 1.88425 5.30233 1.88425ZM0 5.4907C0 2.57962 2.37393 0.219727 5.30233 0.219727C8.23072 0.219727 10.6047 2.57962 10.6047 5.4907C10.6047 8.40178 8.23072 10.7617 5.30233 10.7617C2.37393 10.7617 0 8.40178 0 5.4907Z" fill="#E65F2B"/>
<path fill-rule="evenodd" clip-rule="evenodd" d="M18.6969 15.2002C16.6932 15.2002 15.0689 16.8148 15.0689 18.8066C15.0689 20.7984 16.6932 22.4131 18.6969 22.4131C20.7005 22.4131 22.3248 20.7984 22.3248 18.8066C22.3248 16.8148 20.7005 15.2002 18.6969 15.2002ZM13.3945 18.8066C13.3945 15.8955 15.7685 13.5356 18.6969 13.5356C21.6253 13.5356 23.9992 15.8955 23.9992 18.8066C23.9992 21.7177 21.6253 24.0776 18.6969 24.0776C15.7685 24.0776 13.3945 21.7177 13.3945 18.8066Z" fill="#E65F2B"/>
</svg>
