<svg width="35" height="26" viewBox="0 0 35 26" fill="none" xmlns="http://www.w3.org/2000/svg">
<path fill-rule="evenodd" clip-rule="evenodd" d="M24.6953 14.6455C26.8074 16.1079 28.2874 18.0893 28.2874 20.7311V25.4486H34.4541V20.7311C34.4541 17.303 28.9503 15.2745 24.6953 14.6455Z" fill="#554585" fill-opacity="0.91"/>
<path d="M12.8708 12.872C16.2765 12.872 19.0374 10.0559 19.0374 6.58199C19.0374 3.10812 16.2765 0.291992 12.8708 0.291992C9.46501 0.291992 6.7041 3.10812 6.7041 6.58199C6.7041 10.0559 9.46501 12.872 12.8708 12.872Z" fill="#554585" fill-opacity="0.91"/>
<path fill-rule="evenodd" clip-rule="evenodd" d="M22.1217 12.8705C25.5288 12.8705 28.2884 10.0558 28.2884 6.58053C28.2884 3.1053 25.5288 0.290527 22.1217 0.290527C21.3971 0.290527 20.7188 0.447777 20.0713 0.667927C21.3509 2.2876 22.1217 4.34758 22.1217 6.58053C22.1217 8.81348 21.3509 10.8735 20.0713 12.4931C20.7188 12.7133 21.3971 12.8705 22.1217 12.8705Z" fill="#554585" fill-opacity="0.91"/>
<path fill-rule="evenodd" clip-rule="evenodd" d="M12.8646 14.4443C8.74833 14.4443 0.53125 16.5515 0.53125 20.7343V25.4518H25.1979V20.7343C25.1979 16.5515 16.9808 14.4443 12.8646 14.4443Z" fill="#554585" fill-opacity="0.91"/>
</svg>
