<svg width="23" height="18" viewBox="0 0 23 18" fill="none" xmlns="http://www.w3.org/2000/svg">
<path d="M15.6818 7.71429C17.4173 7.71429 18.8077 5.99143 18.8077 3.85714C18.8077 1.72286 17.4173 0 15.6818 0C13.9464 0 12.5455 1.72286 12.5455 3.85714C12.5455 5.99143 13.9464 7.71429 15.6818 7.71429ZM7.31818 7.71429C9.05364 7.71429 10.4441 5.99143 10.4441 3.85714C10.4441 1.72286 9.05364 0 7.31818 0C5.58273 0 4.18182 1.72286 4.18182 3.85714C4.18182 5.99143 5.58273 7.71429 7.31818 7.71429ZM7.31818 10.2857C4.88227 10.2857 0 11.79 0 14.7857V18H14.6364V14.7857C14.6364 11.79 9.75409 10.2857 7.31818 10.2857ZM15.6818 10.2857C15.3786 10.2857 15.0336 10.3114 14.6677 10.35C15.8805 11.43 16.7273 12.8829 16.7273 14.7857V18H23V14.7857C23 11.79 18.1177 10.2857 15.6818 10.2857Z" fill="#B1B1B1"/>
</svg>
