<svg width="27" height="39" viewBox="0 0 27 39" fill="none" xmlns="http://www.w3.org/2000/svg">
<path d="M16.3167 7.33333C18.425 7.33333 20.15 5.68333 20.15 3.66667C20.15 1.65 18.425 0 16.3167 0C14.2083 0 12.4833 1.65 12.4833 3.66667C12.4833 5.68333 14.2083 7.33333 16.3167 7.33333ZM9.41667 32.8167L11.3333 24.75L15.3583 28.4167V39.4167H19.1917V25.6667L15.1667 22L16.3167 16.5C18.8083 19.25 22.6417 21.0833 26.8583 21.0833V17.4167C23.2167 17.4167 20.15 15.5833 18.6167 13.0167L16.7 10.0833C15.9333 8.98333 14.7833 8.25 13.4417 8.25C12.8667 8.25 12.4833 8.43333 11.9083 8.43333L1.94167 12.4667V21.0833H5.775V14.85L9.225 13.5667L6.15833 28.4167L-3.23333 26.5833L-4 30.25L9.41667 32.8167Z" fill="#554585" fill-opacity="0.91"/>
</svg>
