<svg width="25" height="25" viewBox="0 0 25 25" fill="none" xmlns="http://www.w3.org/2000/svg">
<path d="M22.6985 9.39021H22.1678C21.9954 8.85203 21.7778 8.32923 21.5172 7.82694L21.8931 7.45202C22.8045 6.54392 22.7801 5.08864 21.8934 4.20514L20.7845 3.09906C19.8993 2.21493 18.44 2.18931 17.5293 3.09872L17.1532 3.47394C16.6496 3.21405 16.1254 2.99703 15.5859 2.82505V2.29558C15.5859 1.02981 14.5535 0 13.2845 0H11.7155C10.4465 0 9.41406 1.02981 9.41406 2.29558V2.82505C8.87456 2.99698 8.35039 3.214 7.84683 3.47394L7.471 3.09906C6.56216 2.19145 5.10293 2.21274 4.21592 3.09877L3.10688 4.20489C2.22056 5.088 2.19492 6.54339 3.10659 7.45177L3.48276 7.82699C3.22217 8.32928 3.00464 8.85203 2.83223 9.39026H2.30146C1.03247 9.39021 0 10.42 0 11.6858V13.2509C0 14.5166 1.03247 15.5464 2.30146 15.5464H2.83223C3.00464 16.0846 3.22217 16.6074 3.48276 17.1097L3.10688 17.4846C2.19551 18.3927 2.21992 19.848 3.10659 20.7315L4.21553 21.8376C5.10073 22.7217 6.56001 22.7473 7.47065 21.8379L7.84683 21.4627C8.35039 21.7226 8.87456 21.9396 9.41406 22.1116V22.6411C9.41406 23.9068 10.4465 24.9367 11.7155 24.9367H13.2845C14.5535 24.9367 15.586 23.9068 15.586 22.6411V22.1116C16.1255 21.9397 16.6497 21.7227 17.1532 21.4627L17.5291 21.8376C18.4379 22.7452 19.8971 22.7239 20.7841 21.8379L21.8932 20.7317C22.7795 19.8486 22.8051 18.3932 21.8935 17.4848L21.5173 17.1096C21.7779 16.6073 21.9954 16.0846 22.1678 15.5463H22.6986C23.9676 15.5463 25 14.5165 25 13.2508V11.6857C25 10.42 23.9675 9.39021 22.6985 9.39021ZM12.5 17.894C9.50064 17.894 7.06055 15.46 7.06055 12.4683C7.06055 9.47661 9.50064 7.04266 12.5 7.04266C15.4994 7.04266 17.9395 9.47661 17.9395 12.4683C17.9395 15.46 15.4994 17.894 12.5 17.894Z" fill="#B1B1B1"/>
</svg>
