<svg width="18" height="19" viewBox="0 0 18 19" fill="none" xmlns="http://www.w3.org/2000/svg">
<path d="M9 9.8C7.75 9.8 6.6875 9.35278 5.8125 8.45833C4.9375 7.56389 4.5 6.47778 4.5 5.2C4.5 3.92222 4.9375 2.83611 5.8125 1.94167C6.6875 1.04722 7.75 0.6 9 0.6C10.25 0.6 11.3125 1.04722 12.1875 1.94167C13.0625 2.83611 13.5 3.92222 13.5 5.2C13.5 6.47778 13.0625 7.56389 12.1875 8.45833C11.3125 9.35278 10.25 9.8 9 9.8ZM0 19V16.0867C0 15.55 0.125 15.0389 0.375 14.5533C0.625 14.0678 0.975 13.6844 1.425 13.4033C2.55 12.7133 3.74375 12.1958 5.00625 11.8508C6.26875 11.5058 7.6 11.3333 9 11.3333C10.4 11.3333 11.7313 11.5058 12.9938 11.8508C14.2563 12.1958 15.45 12.7133 16.575 13.4033C17.025 13.6844 17.375 14.0678 17.625 14.5533C17.875 15.0389 18 15.55 18 16.0867V19H0Z" fill="#B1B1B1"/>
</svg>
