<svg width="35" height="33" viewBox="0 0 35 33" fill="none" xmlns="http://www.w3.org/2000/svg">
<path d="M7.77778 14.3V7.33333H3.88889V9.16667C3.88889 10.3278 4.24537 11.3743 4.95833 12.3063C5.6713 13.2382 6.61111 13.9028 7.77778 14.3ZM27.2222 14.3C28.3889 13.9028 29.3287 13.2382 30.0417 12.3063C30.7546 11.3743 31.1111 10.3278 31.1111 9.16667V7.33333H27.2222V14.3ZM15.5556 29.3333V23.65C13.9676 23.3139 12.5498 22.6799 11.3021 21.7479C10.0544 20.816 9.13889 19.6472 8.55556 18.2417C6.125 17.9667 4.09144 16.966 2.45486 15.2396C0.818287 13.5132 0 11.4889 0 9.16667V7.33333C0 6.325 0.380787 5.46181 1.14236 4.74375C1.90394 4.02569 2.81944 3.66667 3.88889 3.66667H7.77778C7.77778 2.65833 8.15856 1.79514 8.92014 1.07708C9.68171 0.359028 10.5972 0 11.6667 0H23.3333C24.4028 0 25.3183 0.359028 26.0799 1.07708C26.8414 1.79514 27.2222 2.65833 27.2222 3.66667H31.1111C32.1806 3.66667 33.0961 4.02569 33.8576 4.74375C34.6192 5.46181 35 6.325 35 7.33333V9.16667C35 11.4889 34.1817 13.5132 32.5451 15.2396C30.9086 16.966 28.875 17.9667 26.4444 18.2417C25.8611 19.6472 24.9456 20.816 23.6979 21.7479C22.4502 22.6799 21.0324 23.3139 19.4444 23.65V29.3333H25.2778C25.8287 29.3333 26.2905 29.509 26.6632 29.8604C27.0359 30.2118 27.2222 30.6472 27.2222 31.1667C27.2222 31.6861 27.0359 32.1215 26.6632 32.4729C26.2905 32.8243 25.8287 33 25.2778 33H9.72222C9.1713 33 8.70949 32.8243 8.33681 32.4729C7.96412 32.1215 7.77778 31.6861 7.77778 31.1667C7.77778 30.6472 7.96412 30.2118 8.33681 29.8604C8.70949 29.509 9.1713 29.3333 9.72222 29.3333H15.5556Z" fill="#554585" fill-opacity="0.91"/>
</svg>
