<svg width="41" height="43" viewBox="0 0 41 43" fill="none" xmlns="http://www.w3.org/2000/svg">
<path d="M0.871094 3.1997V40.1994C0.871342 40.2796 0.895284 40.3581 0.939918 40.4248C0.984552 40.4915 1.04789 40.5436 1.12199 40.5744C1.19609 40.6053 1.27766 40.6136 1.35646 40.5983C1.43526 40.583 1.50779 40.5448 1.56496 40.4884L20.8302 21.7005L1.56496 2.91067C1.50779 2.85431 1.43526 2.81609 1.35646 2.80078C1.27766 2.78548 1.19609 2.79378 1.12199 2.82465C1.04789 2.85552 0.984552 2.90757 0.939918 2.9743C0.895284 3.04102 0.871342 3.11943 0.871094 3.1997ZM28.908 13.9804L4.75182 0.671863L4.73676 0.66339C4.32063 0.437437 3.92521 1.00043 4.26602 1.32807L23.2018 19.4344L28.908 13.9804ZM4.26791 42.0729C3.92521 42.4005 4.32063 42.9635 4.73864 42.7376L4.7537 42.7291L28.908 29.4205L23.2018 23.9647L4.26791 42.0729ZM38.6597 19.3468L31.9141 15.6318L25.5714 21.7005L31.9141 27.7663L38.6597 24.0541C40.4946 23.0402 40.4946 20.3608 38.6597 19.3468Z" fill="#1B1117"/>
</svg>
