<svg width="50" height="49" viewBox="0 0 50 49" fill="none" xmlns="http://www.w3.org/2000/svg">
<g clip-path="url(#clip0_3250_952)">
<path d="M37.7061 26.1631C37.7716 33.2429 43.9175 35.5992 43.9853 35.6294C43.9333 35.7951 43.0036 38.987 40.7478 42.2833C38.7978 45.1333 36.7737 47.9728 33.5859 48.0323C30.4534 48.0895 29.446 46.1742 25.8643 46.1742C22.2837 46.1742 21.1649 47.9728 18.1993 48.0895C15.1218 48.2062 12.7783 45.0071 10.8122 42.168C6.79472 36.3596 3.72441 25.7545 7.84691 18.596C9.89479 15.041 13.5552 12.7901 17.5278 12.7321C20.5496 12.6745 23.4018 14.765 25.249 14.765C27.095 14.765 30.5611 12.2509 34.205 12.6199C35.7305 12.6836 40.0123 13.236 42.7618 17.261C42.5407 17.3984 37.653 20.2439 37.7061 26.1631ZM31.8189 8.7776C33.4526 6.80014 34.5522 4.04653 34.2524 1.30762C31.8973 1.40214 29.0495 2.87685 27.3605 4.85356C25.8466 6.60356 24.521 9.40537 24.8784 12.0901C27.5036 12.2934 30.1849 10.7562 31.8189 8.7776Z" fill="#1B1117"/>
</g>
<defs>
<clipPath id="clip0_3250_952">
<rect width="48.2031" height="48.2031" fill="white" transform="translate(0.835938 0.598633)"/>
</clipPath>
</defs>
</svg>
