<svg width="19" height="18" viewBox="0 0 19 18" fill="none" xmlns="http://www.w3.org/2000/svg">
<path d="M15.6002 9.08407C15.6002 12.4833 12.8446 15.2389 9.4454 15.2389V16.0271C13.2799 16.0271 16.3884 12.9186 16.3884 9.08407H15.6002ZM9.4454 15.2389C6.04619 15.2389 3.29059 12.4833 3.29059 9.08407H2.50238C2.50238 12.9186 5.61087 16.0271 9.4454 16.0271V15.2389ZM3.29059 9.08407C3.29059 5.68486 6.04619 2.92926 9.4454 2.92926V2.14105C5.61087 2.14105 2.50238 5.24955 2.50238 9.08407H3.29059ZM9.4454 2.92926C12.8446 2.92926 15.6002 5.68486 15.6002 9.08407H16.3884C16.3884 5.24955 13.2799 2.14105 9.4454 2.14105V2.92926Z" fill="#554585" fill-opacity="0.91"/>
</svg>
