<svg width="34" height="35" viewBox="0 0 34 35" fill="none" xmlns="http://www.w3.org/2000/svg">
<path d="M5.66667 18.6419C6.44907 18.6419 7.08333 18.0077 7.08333 17.2253C7.08333 16.4429 6.44907 15.8086 5.66667 15.8086C4.88426 15.8086 4.25 16.4429 4.25 17.2253C4.25 18.0077 4.88426 18.6419 5.66667 18.6419Z" fill="black"/>
<path d="M28.4177 15.8086H11.2477C10.5122 15.8086 9.91602 16.4048 9.91602 17.1403V17.3103C9.91602 18.0457 10.5122 18.6419 11.2477 18.6419H28.4177C29.1531 18.6419 29.7494 18.0457 29.7494 17.3103V17.1403C29.7494 16.4048 29.1531 15.8086 28.4177 15.8086Z" fill="black"/>
<path d="M28.4183 22.8916H5.58167C4.84621 22.8916 4.25 23.4878 4.25 24.2233V24.3933C4.25 25.1287 4.84621 25.7249 5.58167 25.7249H28.4183C29.1538 25.7249 29.75 25.1287 29.75 24.3933V24.2233C29.75 23.4878 29.1538 22.8916 28.4183 22.8916Z" fill="black"/>
<path d="M28.4183 8.7251H5.58167C4.84621 8.7251 4.25 9.3213 4.25 10.0568V10.2268C4.25 10.9622 4.84621 11.5584 5.58167 11.5584H28.4183C29.1538 11.5584 29.75 10.9622 29.75 10.2268V10.0568C29.75 9.3213 29.1538 8.7251 28.4183 8.7251Z" fill="black"/>
</svg>
