<svg width="25" height="26" viewBox="0 0 25 26" fill="none" xmlns="http://www.w3.org/2000/svg">
<path d="M15.6992 5.1084H9.76537C8.60593 5.10982 7.49437 5.59061 6.67458 6.44528C5.8548 7.29994 5.39375 8.45869 5.39258 9.66727L5.39258 15.8526C5.39394 17.0611 5.85518 18.2198 6.6751 19.0743C7.49503 19.9289 8.60666 20.4094 9.76611 20.4107H15.6999C16.8594 20.4092 17.9709 19.9285 18.7907 19.0738C19.6105 18.2191 20.0716 17.0604 20.0727 15.8518V9.6665C20.0714 8.45792 19.6101 7.29926 18.7902 6.44473C17.9703 5.59021 16.8586 5.10962 15.6992 5.1084V5.1084ZM18.5963 15.8518C18.5963 16.2484 18.5213 16.641 18.3757 17.0074C18.2301 17.3738 18.0167 17.7067 17.7477 17.9871C17.4787 18.2676 17.1593 18.49 16.8079 18.6418C16.4564 18.7935 16.0796 18.8716 15.6992 18.8716H9.76537C8.99715 18.8714 8.26046 18.5532 7.71732 17.9869C7.17417 17.4206 6.86905 16.6526 6.86905 15.8518V9.6665C6.86924 8.86573 7.17455 8.09782 7.71784 7.53166C8.26112 6.96549 8.99789 6.64744 9.76611 6.64744H15.6999C16.4682 6.64764 17.2048 6.96589 17.748 7.5322C18.2911 8.0985 18.5963 8.86649 18.5963 9.66727V15.8526V15.8518Z" fill="#FF5033"/>
<path d="M12.7331 8.80273C11.7268 8.80436 10.7622 9.22182 10.0507 9.96361C9.33917 10.7054 8.93886 11.711 8.9375 12.7599C8.93867 13.8092 9.33899 14.8151 10.0507 15.557C10.7623 16.299 11.7273 16.7165 12.7338 16.7179C13.7405 16.7167 14.7056 16.2993 15.4175 15.5573C16.1293 14.8153 16.5297 13.8093 16.5309 12.7599C16.5293 11.7107 16.1286 10.705 15.4167 9.9633C14.7047 9.2216 13.7396 8.80451 12.7331 8.8035V8.80273ZM12.7331 15.1789C12.1178 15.1789 11.5278 14.9241 11.0927 14.4706C10.6576 14.0171 10.4132 13.402 10.4132 12.7607C10.4132 12.1194 10.6576 11.5043 11.0927 11.0508C11.5278 10.5973 12.1178 10.3425 12.7331 10.3425C13.3484 10.3425 13.9384 10.5973 14.3735 11.0508C14.8085 11.5043 15.0529 12.1194 15.0529 12.7607C15.0529 13.402 14.8085 14.0171 14.3735 14.4706C13.9384 14.9241 13.3484 15.1789 12.7331 15.1789V15.1789Z" fill="#FF5033"/>
<path d="M16.5365 9.78097C17.0388 9.78097 17.4461 9.35649 17.4461 8.83287C17.4461 8.30925 17.0388 7.88477 16.5365 7.88477C16.0342 7.88477 15.627 8.30925 15.627 8.83287C15.627 9.35649 16.0342 9.78097 16.5365 9.78097Z" fill="#FF5033"/>
</svg>
