<!-- Find for -->
<svg width="40" height="40" viewBox="0 0 20 19" fill="none" xmlns="http://www.w3.org/2000/svg">
<path d="M10 18.7334C5.03418 18.7334 0.920898 14.6289 0.920898 9.6543C0.920898 4.68848 5.02539 0.575195 9.99121 0.575195C14.9658 0.575195 19.0791 4.68848 19.0791 9.6543C19.0791 14.6289 14.9658 18.7334 10 18.7334ZM9.05078 12.458C9.7627 12.458 10.4219 12.2471 10.9844 11.9131L13.1904 14.1016C13.3838 14.3125 13.6035 14.4092 13.8848 14.4092C14.377 14.4092 14.7285 14.0312 14.7285 13.5215C14.7285 13.3018 14.623 13.082 14.4561 12.9062L12.25 10.6914C12.6279 10.1025 12.8564 9.4082 12.8564 8.65234C12.8564 6.56055 11.1426 4.84668 9.05078 4.84668C6.96777 4.84668 5.25391 6.56055 5.25391 8.65234C5.25391 10.7441 6.96777 12.458 9.05078 12.458ZM9.05957 11.0957C7.71484 11.0957 6.60742 9.98828 6.60742 8.65234C6.60742 7.31641 7.71484 6.20898 9.05957 6.20898C10.3955 6.20898 11.4941 7.30762 11.4941 8.65234C11.4941 9.98828 10.3955 11.0957 9.05957 11.0957Z" fill="#FF5033"/>
</svg>
