<!-- My Football -->
<svg width="48" height="48" viewBox="0 0 49 51" fill="none" xmlns="http://www.w3.org/2000/svg">
<path d="M24.5 5.1875C13.5238 5.1875 4.59375 14.2998 4.59375 25.5C4.59375 36.7002 13.5238 45.8125 24.5 45.8125C35.4762 45.8125 44.4062 36.7002 44.4062 25.5C44.4062 14.2998 35.4762 5.1875 24.5 5.1875ZM37.9597 34.1016H33.4837L31.8672 31.2695L33.3028 25.3672L36.1557 24.1328L40.2374 27.7178C39.9318 29.9868 39.1553 32.1632 37.9597 34.1016ZM12.8443 24.1328L15.6953 25.3701L17.1309 31.2725L15.5144 34.1045H11.0403C9.84512 32.167 9.0686 29.9916 8.76258 27.7236L12.8443 24.1328ZM36.6811 15.1025L34.9192 20.2129L31.9409 21.5L26.5098 16.8535V13.4355L30.7073 10.582C33.0198 11.589 35.0665 13.1388 36.6811 15.1055V15.1025ZM18.2927 10.5781L22.4902 13.4316V16.8496L17.0591 21.499L14.0808 20.2119L12.3189 15.1016C13.9335 13.1349 15.9802 11.5851 18.2927 10.5781ZM20.8231 41.2715L18.8995 36.3242L20.4307 33.6377H28.5655L30.1025 36.3262L28.1884 41.2676C25.7659 41.8561 23.2418 41.8561 20.8193 41.2676L20.8231 41.2715Z" fill="#FF5033"/>
</svg>

