<!-- Play tournament -->

<svg width="40" height="40" viewBox="0 0 22 22" fill="none" xmlns="http://www.w3.org/2000/svg">
<path d="M6.6709 3.75972C6.7524 3.76736 6.7524 3.76736 6.83556 3.77516C7.44843 3.83495 7.44843 3.83495 7.55579 3.95777C7.57927 3.99522 7.60276 4.03266 7.62695 4.07124C7.90636 4.49425 8.26952 4.80758 8.77066 4.91853C9.22805 4.99015 9.63495 4.85667 10.0117 4.59761C10.058 4.54982 10.103 4.5007 10.146 4.4499C10.2695 4.33979 10.2695 4.33979 10.436 4.33174C10.5099 4.34678 10.5832 4.36418 10.6562 4.38276C10.7383 4.39938 10.7383 4.39938 10.8219 4.41633C11.16 4.49457 11.3628 4.57296 11.5586 4.86885C11.6036 4.94921 11.6473 5.03036 11.6875 5.11323C11.43 5.2849 11.1172 5.36178 10.825 5.45847C10.7439 5.48579 10.6631 5.51404 10.5827 5.54328C10.0187 5.74767 9.64261 5.78829 9.07856 5.56541C8.82099 5.46416 8.58575 5.47704 8.33275 5.58119C8.14119 5.69154 8.02757 5.85886 7.93042 6.05317C7.88676 6.2957 7.90846 6.51834 8.02441 6.73799C8.20443 6.99301 8.41493 7.09003 8.69849 7.19453C8.73229 7.20733 8.7661 7.22013 8.80094 7.23331C9.10282 7.34699 9.40637 7.45619 9.71094 7.56245C9.68486 7.83155 9.64379 8.09096 9.58472 8.35469C9.57379 8.40632 9.57379 8.40632 9.56264 8.459C9.50656 8.71214 9.50656 8.71214 9.41016 8.80854C9.30543 8.80017 9.20821 8.78661 9.10525 8.7677C9.07388 8.76234 9.0425 8.75697 9.01017 8.75144C8.90613 8.73352 8.80223 8.7149 8.69832 8.69625C8.6263 8.68367 8.55427 8.67113 8.48224 8.65862C8.33116 8.63229 8.18014 8.60564 8.02917 8.57873C7.83523 8.54417 7.6412 8.51019 7.44712 8.47643C7.29836 8.45052 7.14964 8.42441 7.00093 8.39824C6.92937 8.38565 6.85781 8.37309 6.78624 8.36057C6.68641 8.34305 6.58662 8.3253 6.48684 8.30747C6.44208 8.29966 6.44208 8.29966 6.39641 8.2917C6.19243 8.25488 6.19243 8.25488 6.14453 8.20698C6.13671 8.13329 6.1317 8.05931 6.12782 7.98531C6.12524 7.93797 6.12266 7.89063 6.12001 7.84185C6.11741 7.79025 6.11481 7.73865 6.11214 7.68548C6.10934 7.63274 6.10654 7.58001 6.10365 7.52567C6.09623 7.38499 6.08899 7.2443 6.08182 7.10361C6.07452 6.96128 6.06691 6.81896 6.05935 6.67664C6.05365 6.56801 6.04797 6.45939 6.04231 6.35076C6.03963 6.2996 6.03694 6.24843 6.03418 6.19571C6.03173 6.14769 6.02929 6.09968 6.02678 6.0502C6.02462 6.00816 6.02246 5.96611 6.02023 5.9228C6.01545 5.79605 6.01484 5.66974 6.01562 5.54292C5.9809 5.54912 5.94617 5.55533 5.91039 5.56172C5.86447 5.56969 5.81855 5.57767 5.77124 5.58589C5.72588 5.59386 5.68051 5.60184 5.63377 5.61006C5.5 5.62886 5.5 5.62886 5.28516 5.62886C5.28516 5.10421 5.28516 4.57956 5.28516 4.03901C6.12591 3.69282 6.12591 3.69282 6.6709 3.75972Z" fill="#FF5033"/>
<path d="M20.2135 6.72502C20.5915 6.99777 20.8758 7.3577 20.9688 7.82038C21.0281 8.37103 20.9755 8.84063 20.6385 9.29475C20.3554 9.62621 19.9834 9.8547 19.5508 9.92585C19.0102 9.9627 18.5703 9.86795 18.1328 9.53913C17.766 9.19758 17.5612 8.81645 17.5232 8.31553C17.5105 7.8034 17.6547 7.35172 18.0066 6.97175C18.5979 6.4122 19.5173 6.29162 20.2135 6.72502Z" fill="#FF5033"/>
<path d="M6.18711 8.89453C6.8155 8.96019 7.4355 9.07476 8.05718 9.18556C8.20036 9.21104 8.34357 9.23631 8.48678 9.26161C8.76583 9.31095 9.04484 9.36047 9.32383 9.41016C9.32945 9.43749 9.33507 9.46482 9.34086 9.49299C9.35817 9.58709 9.35817 9.58709 9.43805 9.63173C9.4832 9.65117 9.4832 9.65117 9.52927 9.67099C9.5619 9.68556 9.59452 9.70012 9.62813 9.71513C9.66242 9.7297 9.69671 9.74427 9.73203 9.75928C9.79972 9.78869 9.86731 9.81834 9.93479 9.84824C9.96489 9.86109 9.995 9.87395 10.026 9.8872C10.0973 9.92578 10.0973 9.92578 10.1402 10.0117C10.1034 10.0617 10.0666 10.1116 10.0298 10.1616C10.0057 10.1943 9.98167 10.2269 9.95688 10.2606C9.90306 10.3336 9.84922 10.4066 9.79537 10.4797C9.6556 10.6693 9.51601 10.859 9.37687 11.049C9.12232 11.3963 8.86805 11.7424 8.59336 12.0742C7.71247 11.9441 6.6283 11.7506 6.01523 11.043C5.77662 10.683 5.76673 10.3005 5.84336 9.88281C5.93165 9.54512 6.05685 9.21793 6.18711 8.89453Z" fill="#FF5033"/>
<path d="M9.60046 1.11718C9.96395 1.32966 10.1793 1.65662 10.292 2.05768C10.4196 2.63196 10.2937 3.23668 10.0006 3.73559C9.86179 3.94039 9.70828 4.08515 9.49573 4.21093C9.46953 4.22694 9.44333 4.24295 9.41634 4.25944C9.18961 4.3512 8.89646 4.33085 8.66287 4.27035C8.32071 4.11873 8.10499 3.80024 7.95171 3.47039C7.73891 2.91853 7.70317 2.36387 7.90588 1.80468C8.06055 1.49487 8.30345 1.20115 8.62897 1.06716C8.94868 0.982905 9.29638 0.978879 9.60046 1.11718Z" fill="#FF5033"/>
<path d="M6.18797 15.6406C6.31076 15.6964 6.39895 15.7551 6.49374 15.8507C6.51868 15.8756 6.54361 15.9006 6.5693 15.9263C6.59567 15.9531 6.62204 15.9799 6.64921 16.0075C6.67662 16.0351 6.70404 16.0626 6.73229 16.091C6.8196 16.1788 6.90662 16.2669 6.99363 16.355C7.05286 16.4146 7.11211 16.4743 7.17138 16.5339C7.31646 16.6799 7.46127 16.8262 7.60594 16.9727C7.5279 17.1444 7.43634 17.2196 7.28367 17.3325C7.23279 17.3706 7.18193 17.4088 7.1311 17.447C7.1037 17.4674 7.0763 17.4879 7.04808 17.509C6.89329 17.6255 6.74084 17.745 6.58811 17.8643C6.52227 17.9155 6.45641 17.9668 6.39056 18.018C6.25323 18.1249 6.11594 18.2319 5.97866 18.3389C5.94444 18.3656 5.91022 18.3922 5.87496 18.4197C5.81011 18.4702 5.74527 18.5208 5.68045 18.5714C5.47894 18.7283 5.27563 18.8826 5.07078 19.0352C4.85806 18.9326 4.72377 18.8073 4.59812 18.6055C4.53005 18.4072 4.49673 18.2113 4.46922 18.0039C4.4613 17.9644 4.45338 17.9249 4.44521 17.8842C4.39759 17.4944 4.65431 17.2191 4.87849 16.9267C4.93664 16.8506 4.99302 16.7736 5.04879 16.6957C5.37723 16.243 5.72643 15.9467 6.18797 15.6406Z" fill="#FF5033"/>
<path d="M12.8051 11.5156C12.9496 11.5802 13.06 11.664 13.1811 11.7654C13.2227 11.7999 13.2643 11.8344 13.3072 11.8699C13.3299 11.8889 13.3527 11.9078 13.3761 11.9273C13.5118 12.0398 13.6486 12.151 13.7854 12.2622C13.8143 12.2858 13.8432 12.3093 13.873 12.3336C14.0974 12.5157 14.324 12.695 14.5522 12.8723C14.8367 13.0939 14.8367 13.0939 14.8676 13.2773C14.8749 13.3828 14.8791 13.4885 14.8811 13.5942C14.8835 13.6772 14.8835 13.6772 14.8859 13.7617C14.8602 13.9869 14.7672 14.1096 14.608 14.2658C14.5776 14.2879 14.5472 14.31 14.5158 14.3328C14.486 14.3559 14.4561 14.379 14.4254 14.4028C14.2384 14.4586 14.0977 14.3804 13.9223 14.3086C13.8883 14.2953 13.8542 14.2819 13.8191 14.2682C13.14 13.9978 12.4812 13.6876 11.9001 13.2397C11.8747 13.2203 11.8494 13.2009 11.8232 13.1809C11.7322 13.1073 11.6566 13.0455 11.6082 12.9373C11.602 12.8477 11.602 12.8477 11.6555 12.7665C11.6961 12.7253 11.6961 12.7253 11.7376 12.6832C11.7674 12.6523 11.7972 12.6215 11.8279 12.5897C11.8597 12.5578 11.8915 12.526 11.9243 12.4932C11.9857 12.4303 12.047 12.3674 12.1082 12.3045C12.1385 12.2735 12.1688 12.2426 12.2 12.2107C12.4126 11.9886 12.6096 11.7526 12.8051 11.5156Z" fill="#FF5033"/>
<path d="M2.3467 4.32723C2.44295 4.34198 2.53921 4.35667 2.63548 4.37129C2.7855 4.39429 2.93541 4.41771 3.08517 4.44236C3.84733 4.58704 3.84733 4.58704 4.55472 4.33981C4.58308 4.33981 4.61144 4.33981 4.64066 4.33981C4.64066 4.80774 4.64066 5.27567 4.64066 5.75778C3.94558 5.90673 3.94558 5.90673 3.56644 5.84372C3.52633 5.83772 3.48623 5.83172 3.44491 5.82554C3.3161 5.80552 3.18776 5.78356 3.05937 5.76097C2.98976 5.7488 2.98976 5.7488 2.91875 5.73638C2.82149 5.71926 2.72425 5.70204 2.62703 5.6847C2.47854 5.65837 2.32992 5.63292 2.18128 5.60748C2.08636 5.59066 1.99144 5.57379 1.89653 5.55687C1.85235 5.54943 1.80817 5.542 1.76265 5.53433C1.47572 5.48181 1.28694 5.41643 1.0808 5.20288C0.983949 5.02757 1.00631 4.83423 1.03128 4.6406C1.10749 4.47646 1.17134 4.40498 1.31864 4.30222C1.65129 4.18924 2.0085 4.27188 2.3467 4.32723Z" fill="#FF5033"/>
<path d="M6.70312 13.793C7.20169 13.8166 7.6879 13.889 8.18018 13.9675C8.25816 13.9798 8.33616 13.992 8.41415 14.0042C8.60297 14.0338 8.79173 14.0637 8.98047 14.0938C8.95696 14.4969 8.90698 14.8923 8.84483 15.2909C8.82989 15.3867 8.81528 15.4826 8.8007 15.5784C8.70183 16.223 8.70183 16.223 8.5627 16.3436C8.5152 16.3783 8.46734 16.4125 8.41919 16.4463C8.39479 16.464 8.37039 16.4816 8.34525 16.4998C8.28515 16.5433 8.22464 16.5861 8.16406 16.6289C7.86637 16.3855 7.59937 16.112 7.32886 15.8394C7.28056 15.7908 7.23224 15.7423 7.18392 15.6938C7.06651 15.576 6.94923 15.4579 6.83203 15.3398C6.84621 15.3115 6.86039 15.2831 6.875 15.2539C6.90336 15.2539 6.93172 15.2539 6.96094 15.2539C6.94382 15.1713 6.94382 15.1713 6.92636 15.0871C6.83816 14.6567 6.75952 14.2287 6.70312 13.793Z" fill="#FF5033"/>
<path d="M12.1173 5.71484C12.2242 5.81739 12.2997 5.94563 12.3805 6.06934C12.4037 6.10458 12.4268 6.13983 12.4507 6.17615C12.657 6.50355 12.7681 6.80262 12.692 7.19189C12.6106 7.40642 12.5337 7.55309 12.3456 7.68872C11.9589 7.81274 11.5572 7.61127 11.1953 7.47858C11.1355 7.45696 11.0756 7.43538 11.0157 7.41383C10.8906 7.36872 10.7657 7.32334 10.6408 7.27773C10.4821 7.21981 10.3234 7.16237 10.1645 7.10511C10.0112 7.04984 9.85804 6.99432 9.70485 6.93878C9.67636 6.92848 9.64787 6.91817 9.61852 6.90755C9.48423 6.8589 9.35026 6.80962 9.21655 6.75939C9.11604 6.72169 9.01509 6.68516 8.91375 6.64976C8.86681 6.63237 8.81987 6.61499 8.77151 6.59709C8.72991 6.58227 8.68831 6.56744 8.64545 6.55217C8.5509 6.48828 8.5509 6.48828 8.51312 6.35778C8.50794 6.23047 8.50794 6.23047 8.54822 6.14722C8.71053 6.0636 8.90575 6.12389 9.07592 6.17082C9.17824 6.20363 9.27967 6.23841 9.38107 6.27394C9.4571 6.29968 9.53314 6.32538 9.60918 6.35107C9.72771 6.3915 9.84616 6.43217 9.96445 6.47331C10.0795 6.51317 10.1948 6.55206 10.3103 6.59084C10.3455 6.60336 10.3806 6.61589 10.4169 6.6288C10.5831 6.68399 10.6748 6.70812 10.8499 6.67255C10.9624 6.62784 10.9624 6.62784 11.0001 6.53125C11.0189 6.36239 11.0169 6.29584 10.9133 6.15746C10.8853 6.12483 10.8572 6.09221 10.8282 6.05859C11.0107 6.00091 11.1934 5.94376 11.3761 5.88672C11.4279 5.87032 11.4798 5.85393 11.5332 5.83704C11.5831 5.82153 11.6329 5.80602 11.6843 5.79004C11.7302 5.77564 11.7761 5.76124 11.8234 5.7464C11.9454 5.71484 11.9454 5.71484 12.1173 5.71484Z" fill="#FF5033"/>
<path d="M10.6992 10.2695C10.9807 10.3076 11.2109 10.4153 11.4673 10.5327C11.5124 10.5525 11.5576 10.5724 11.6041 10.5928C11.8872 10.7218 12.1118 10.8655 12.332 11.0859C12.2718 11.2211 12.2002 11.3158 12.0979 11.4223C12.0538 11.4686 12.0538 11.4686 12.0088 11.5158C11.9781 11.5476 11.9474 11.5795 11.9158 11.6123C11.8556 11.6751 11.7954 11.738 11.7353 11.801C11.7058 11.8318 11.6762 11.8627 11.6458 11.8945C11.5354 12.0133 11.431 12.1366 11.3278 12.2617C11.2527 12.3372 11.1832 12.376 11.0859 12.418C11.0576 12.3612 11.0292 12.3045 11 12.2461C10.9743 12.2463 10.9486 12.2465 10.9221 12.2468C9.58899 12.2569 9.58899 12.2569 9.32422 12.1172C9.34189 12.0941 9.35957 12.0711 9.37778 12.0473C9.70507 11.62 10.0309 11.1917 10.3501 10.7583C10.3754 10.724 10.4006 10.6897 10.4267 10.6544C10.5199 10.5273 10.6118 10.4007 10.6992 10.2695Z" fill="#FF5033"/>
<path d="M17.0156 12.375C17.1511 12.4512 17.2094 12.5124 17.2896 12.6436C17.3432 12.8798 17.3203 13.0255 17.1992 13.2322C17.0988 13.3793 16.9942 13.5221 16.8867 13.6641C16.8524 13.7104 16.818 13.7567 16.7837 13.8031C16.5188 14.1567 16.2347 14.4939 15.9414 14.8242C15.9125 14.8568 15.8837 14.8894 15.854 14.9229C15.6948 15.0926 15.5254 15.2351 15.2969 15.2969C15.0988 15.2767 14.9959 15.2254 14.8699 15.0767C14.8406 15.0359 14.8114 14.9951 14.7812 14.9531C14.8416 14.8107 14.9102 14.7368 15.031 14.6416C15.2475 14.4586 15.4141 14.2479 15.4688 13.9649C15.4612 13.9105 15.4536 13.8561 15.4458 13.8C15.4179 13.5903 15.3992 13.3947 15.4688 13.1914C15.6691 12.9303 15.9655 12.7602 16.2422 12.5899C16.2733 12.569 16.3045 12.5481 16.3366 12.5265C16.5678 12.3729 16.737 12.3232 17.0156 12.375Z" fill="#FF5033"/>
<path d="M3.82421 17.961C3.83485 18.0133 3.84548 18.0656 3.85644 18.1195C4.01265 18.8072 4.236 19.2846 4.85009 19.6717C5.04171 19.869 5.07553 20.1781 5.0891 20.4451C5.08031 20.6342 5.03328 20.7447 4.89843 20.8829C4.7122 20.9843 4.56149 21.0176 4.35058 20.993C4.07601 20.861 3.95144 20.6069 3.82958 20.3404C3.80789 20.2936 3.80789 20.2936 3.78575 20.2459C3.16926 18.8828 3.16926 18.8828 3.26562 18.2188C3.43417 17.9926 3.55169 17.9551 3.82421 17.961Z" fill="#FF5033"/>
<path d="M6.44512 12.1172C6.49109 12.1334 6.49109 12.1334 6.53798 12.15C7.14106 12.3612 7.73343 12.5537 8.36441 12.659C8.50174 12.682 8.63869 12.7069 8.77569 12.7317C8.9154 12.7566 9.05528 12.7806 9.19512 12.8047C9.16676 13.0316 9.1384 13.2584 9.10919 13.4922C8.81718 13.4511 8.5252 13.4098 8.23324 13.3684C8.13406 13.3544 8.03487 13.3404 7.93568 13.3264C7.79252 13.3062 7.64938 13.2859 7.50625 13.2656C7.46241 13.2595 7.41858 13.2533 7.37341 13.247C7.10485 13.2086 6.83942 13.1618 6.57403 13.1055C6.55233 12.9811 6.53088 12.8566 6.50958 12.7322C6.50035 12.6795 6.50035 12.6795 6.49094 12.6258C6.48513 12.5916 6.47931 12.5574 6.47332 12.5222C6.46522 12.4753 6.46522 12.4753 6.45696 12.4274C6.44402 12.3232 6.44319 12.2221 6.44512 12.1172Z" fill="#FF5033"/>
</svg>











